<svg width="145" height="27" viewBox="0 0 145 27" fill="none" xmlns="http://www.w3.org/2000/svg">
<path d="M18.9473 0.872V4.94H12.2513V26H7.21128V4.94H0.515281V0.872H18.9473ZM38.0326 21.212H28.0246L26.3686 26H21.0766L30.1126 0.835998H35.9806L45.0166 26H39.6886L38.0326 21.212ZM36.6646 17.18L33.0286 6.668L29.3926 17.18H36.6646ZM68.3742 0.872L59.8782 17.252V26H54.8382V17.252L46.3062 0.872H51.9942L57.3942 12.356L62.7582 0.872H68.3742ZM76.3209 22.004H84.6009V26H71.2809V0.872H76.3209V22.004ZM99.4683 26.252C97.1163 26.252 94.9563 25.7 92.9883 24.596C91.0203 23.492 89.4603 21.968 88.3083 20.024C87.1563 18.056 86.5803 15.836 86.5803 13.364C86.5803 10.916 87.1563 8.72 88.3083 6.776C89.4603 4.808 91.0203 3.272 92.9883 2.168C94.9563 1.064 97.1163 0.512 99.4683 0.512C101.844 0.512 104.004 1.064 105.948 2.168C107.916 3.272 109.464 4.808 110.592 6.776C111.744 8.72 112.32 10.916 112.32 13.364C112.32 15.836 111.744 18.056 110.592 20.024C109.464 21.968 107.916 23.492 105.948 24.596C103.98 25.7 101.82 26.252 99.4683 26.252ZM99.4683 21.752C100.98 21.752 102.312 21.416 103.464 20.744C104.616 20.048 105.516 19.064 106.164 17.792C106.812 16.52 107.136 15.044 107.136 13.364C107.136 11.684 106.812 10.22 106.164 8.972C105.516 7.7 104.616 6.728 103.464 6.056C102.312 5.384 100.98 5.048 99.4683 5.048C97.9563 5.048 96.6123 5.384 95.4363 6.056C94.2843 6.728 93.3843 7.7 92.7363 8.972C92.0883 10.22 91.7643 11.684 91.7643 13.364C91.7643 15.044 92.0883 16.52 92.7363 17.792C93.3843 19.064 94.2843 20.048 95.4363 20.744C96.6123 21.416 97.9563 21.752 99.4683 21.752ZM129.03 26L123.486 16.208H121.11V26H116.07V0.872H125.502C127.446 0.872 129.102 1.22 130.47 1.916C131.838 2.588 132.858 3.512 133.53 4.688C134.226 5.84 134.574 7.136 134.574 8.576C134.574 10.232 134.094 11.732 133.134 13.076C132.174 14.396 130.746 15.308 128.85 15.812L134.862 26H129.03ZM121.11 12.428H125.322C126.69 12.428 127.71 12.104 128.382 11.456C129.054 10.784 129.39 9.86 129.39 8.684C129.39 7.532 129.054 6.644 128.382 6.02C127.71 5.372 126.69 5.048 125.322 5.048H121.11V12.428Z" fill="#FFC107"/>
<path d="M141.364 26.252C140.452 26.252 139.696 25.976 139.096 25.424C138.52 24.848 138.232 24.14 138.232 23.3C138.232 22.46 138.52 21.764 139.096 21.212C139.696 20.636 140.452 20.348 141.364 20.348C142.252 20.348 142.984 20.636 143.56 21.212C144.136 21.764 144.424 22.46 144.424 23.3C144.424 24.14 144.136 24.848 143.56 25.424C142.984 25.976 142.252 26.252 141.364 26.252Z" fill="#192747"/>
</svg>
